<?xml version="1.0" standalone="no"?>
<!DOCTYPE svg PUBLIC "-//W3C//DTD SVG 1.1//EN" "http://www.w3.org/Graphics/SVG/1.1/DTD/svg11.dtd" >
<svg xmlns="http://www.w3.org/2000/svg">
<metadata>
Created by FontPrep 20130207 at Mon Mar 24 11:35:21 2014
 By Romain Gazielly
Copyright (c) 1985, 1987, 1988, 1994, 1999, 2002 Adobe Systems Incorporated.  All Rights Reserved. (c) 1981, 1999, 2002 Heidelberger Druckmaschinen AG. All rights reserved.
</metadata>
<defs>
<font id="8ce1d556d22a21cda5a0cb13f27836bf" horiz-adv-x='1024' >
  <font-face 
    font-family="HelveticaLTStd-Light"
    font-weight="300"
    font-stretch="normal"
    units-per-em="2048"
    panose-1="2 11 4 3 2 2 2 2 2 4"
    ascent="1470"
    descent="-578"
    x-height="1061"
    cap-height="1475"
    bbox="-336 -512 2048 2005.02"
    underline-thickness="102"
    underline-position="-102"
    unicode-range="U+0020-FB02"
  />
<missing-glyph horiz-adv-x="1024" 
d="M102 1239v-1044l349 522zM164 102h696l-348 523zM573 717l349 -522v1044zM512 809l348 522h-696zM0 0v1434h1024v-1434h-1024z" />
    <glyph glyph-name="fi" unicode="fi" horiz-adv-x="1024" 
d="M891 1475v-183h-135v183h135zM885 0h-123v1061h123v-1061zM188 958h-161v103h161v168q0 274 226 274q59 0 102 -8v-113q-98 24 -143 -3q-45 -26 -59 -113q-3 -27 -3 -74v-131h201v-103h-201v-958h-123v958z" />
    <glyph glyph-name="fl" unicode="fl" horiz-adv-x="1024" 
d="M885 0h-123v1475h123v-1475zM188 958h-161v103h161v168q0 274 226 274q59 0 102 -8v-113q-98 24 -143 -3q-45 -26 -59 -113q-3 -27 -3 -74v-131h201v-103h-201v-958h-123v958z" />
    <glyph glyph-name=".notdef" horiz-adv-x="1024" 
d="M102 1239v-1044l349 522zM164 102h696l-348 523zM573 717l349 -522v1044zM512 809l348 522h-696zM0 0v1434h1024v-1434h-1024z" />
    <glyph glyph-name=".null" horiz-adv-x="0" 
 />
    <glyph glyph-name="nonmarkingreturn" horiz-adv-x="681" 
 />
    <glyph glyph-name="space" unicode=" " horiz-adv-x="569" 
 />
    <glyph glyph-name="exclam" unicode="!" horiz-adv-x="681" 
d="M416 0h-150v180h150v-180zM266 1475h150v-459l-29 -645h-92l-29 645v459z" />
    <glyph glyph-name="quotedbl" unicode="&#x22;" horiz-adv-x="569" 
d="M344 1012v463h107v-463h-107zM117 1012v463h106v-463h-106z" />
    <glyph glyph-name="numbersign" unicode="#" 
d="M743 874h-278l-45 -286h282zM1032 588v-121h-227l-66 -467h-121l64 467h-281l-69 -467h-121l70 467h-226v121h244l43 286h-229v121h245l66 435h123l-66 -435h279l63 435h121l-63 -435h204v-121h-221l-41 -286h209z" />
    <glyph glyph-name="dollar" unicode="$" 
d="M618 -195h-94v156q-367 20 -438 354q-6 35 -10 101h133q0 -140 88 -238t225 -106v608q-306 73 -378 229q-30 68 -29 162q0 168 119 272q120 104 290 101v125h94v-125q172 2 283 -94t117 -267h-133q-2 111 -78 181t-189 69v-545q115 -28 185 -54q181 -69 229 -198
q29 -77 29 -190q-1 -170 -135 -276t-308 -109v-156zM618 72q129 0 221 85q91 85 91 218t-78 192t-234 92v-587zM522 1333q-116 1 -196 -71t-80 -190t68 -172t208 -93v526z" />
    <glyph glyph-name="percent" unicode="%" horiz-adv-x="1820" 
d="M1368 1444l-813 -1473h-106l813 1473h106zM475 868q90 0 157 67q66 67 66 156t-66 155t-157 67q-90 0 -156 -67q-65 -66 -65 -156t66 -156t155 -66zM815 1090q0 -138 -100 -238q-99 -100 -239 -100t-239 99t-99 239t98 239q100 101 239 101t239 -100t101 -240zM1565 340
q1 90 -65 156t-156 65t-155 -67t-65 -156t67 -156t155 -66t154 68q66 66 65 156zM1348 678q139 0 236 -99t97 -239t-96 -240t-236 -100t-241 100q-100 100 -100 238t100 240q101 100 240 100z" />
    <glyph glyph-name="ampersand" unicode="&#x26;" horiz-adv-x="1366" 
d="M545 -39q-197 0 -329 122t-132 316q0 156 97 270t255 187q-158 182 -158 324t96 218q95 77 233 77q137 0 225 -83t88 -214t-91 -214q-49 -46 -87 -73t-113 -72l370 -438q61 102 62 287h121q-10 -244 -103 -385l240 -283h-166l-143 174q-94 -113 -205 -163t-260 -50z
M600 1364q-80 0 -138 -49t-58 -135t153 -269q61 37 88 55t69 57q42 40 60 83q39 88 -12 173t-162 85zM223 376q0 -130 94 -217t238 -87q209 -1 375 196l-420 500q-127 -58 -207 -160t-80 -232z" />
    <glyph glyph-name="quotesingle" unicode="'" horiz-adv-x="454" 
d="M174 1012v463h107v-463h-107z" />
    <glyph glyph-name="parenleft" unicode="(" horiz-adv-x="681" 
d="M254 567q0 -491 313 -958h-104q-182 252 -266 466t-84 486t87 494t263 458h104q-313 -455 -313 -946z" />
    <glyph glyph-name="parenright" unicode=")" horiz-adv-x="681" 
d="M428 555q0 491 -313 958h104q182 -251 266 -465t84 -486t-87 -495q-87 -222 -263 -458h-104q313 455 313 946z" />
    <glyph glyph-name="asterisk" unicode="*" horiz-adv-x="796" 
d="M354 1475h86v-240l234 86l31 -90l-234 -76l154 -217l-80 -49l-152 221l-160 -217l-71 55l157 207l-229 82l37 86l227 -88v240z" />
    <glyph glyph-name="plus" unicode="+" horiz-adv-x="1351" 
d="M614 573v451h123v-451h451v-122h-451v-451h-123v451h-450v122h450z" />
    <glyph glyph-name="comma" unicode="," horiz-adv-x="569" 
d="M358 180v-241q0 -172 -149 -220v76q70 43 70 135v70h-70v180h149z" />
    <glyph glyph-name="hyphen" unicode="-" horiz-adv-x="681" 
d="M82 596h518v-127h-518v127z" />
    <glyph glyph-name="period" unicode="." horiz-adv-x="569" 
d="M358 0h-149v180h149v-180z" />
    <glyph glyph-name="slash" unicode="/" horiz-adv-x="569" 
d="M590 1513l-481 -1697h-115l481 1697h115z" />
    <glyph glyph-name="zero" unicode="0" 
d="M570 1444q122 0 213 -47t143 -118t91 -206q40 -135 40 -334t-22 -319q-23 -120 -73 -227q-105 -220 -392 -221q-288 -1 -396 222q-96 203 -94 517q0 405 137 581q118 152 353 152zM926 714q0 446 -177 568q-75 51 -184 51q-354 0 -354 -637q0 -298 81 -456t277 -158
q111 0 186 54t109 154q62 175 62 424z" />
    <glyph glyph-name="one" unicode="1" 
d="M618 0v1073h-372v86q230 12 303 81q74 69 96 204h105v-1444h-132z" />
    <glyph glyph-name="two" unicode="2" 
d="M141 971q0 213 128 343t340 130t329 -113t117 -287q0 -213 -162 -347q-105 -86 -261 -171t-224 -138q-68 -54 -117 -120t-53 -157h804v-111h-944q2 115 26 197q24 83 90 159t153 144q89 68 161 108q180 101 270 177q115 97 114 242q-1 146 -91 226t-228 80
q-138 1 -228 -107t-84 -255h-140z" />
    <glyph glyph-name="three" unicode="3" 
d="M866 1064q0 142 -87 206t-222 63q-135 0 -221 -87t-86 -222h-131q0 193 139 324q106 96 307 96t317 -91t115 -266q0 -233 -204 -321q256 -80 256 -356q0 -184 -124 -308t-341 -131q-254 -1 -373 99t-141 348h131q0 -162 97 -249t256 -87t264 98t100 228q-6 166 -133 234
t-332 54v107q201 -2 307 59q106 60 106 202z" />
    <glyph glyph-name="four" unicode="4" 
d="M733 467v766l-530 -766h530zM733 0v356h-659v113l671 961h119v-963h201v-111h-201v-356h-131z" />
    <glyph glyph-name="five" unicode="5" 
d="M565 82q152 0 246 105t94 267t-98 262q-98 101 -260 101q-199 0 -314 -149l-108 14l117 748h716v-111h-606l-90 -485q84 55 152 74t166 20q204 0 330 -129t126 -348t-134 -349t-322 -131q-477 1 -508 404h131q20 -143 115 -218t247 -75z" />
    <glyph glyph-name="six" unicode="6" 
d="M590 795q-146 1 -236 -103t-90 -250t82 -253t248 -107t247 106t81 256q0 351 -332 351zM594 905q217 0 338 -124t121 -342t-122 -343t-348 -125t-363 164q-136 164 -136 540t157 593q56 78 150 127t217 49q174 0 288 -92t134 -262h-135q-23 116 -93 180t-181 63
q-213 0 -302 -173q-55 -107 -74 -221t-30 -259q129 173 228 202q75 23 151 23z" />
    <glyph glyph-name="seven" unicode="7" 
d="M121 1298v132h919v-123q-281 -317 -426 -682t-159 -625h-144q20 301 187 666q166 365 385 632h-762z" />
    <glyph glyph-name="eight" unicode="8" 
d="M141 1106q0 136 121 240t291 98q182 0 309 -89t127 -263q0 -227 -196 -324q119 -43 187 -138t69 -220q1 -209 -137 -324t-371 -115q-174 0 -313 114q-138 114 -138 312q0 131 66 231t186 148q-115 72 -158 133t-43 197zM565 1333q-127 -1 -210 -69t-83 -193t88 -189
t218 -65q130 0 204 70q76 70 76 215q0 231 -293 231zM568 707q-155 0 -251 -78q-96 -77 -96 -223t98 -235t252 -89t250 90q97 90 97 234t-98 223q-98 78 -252 78z" />
    <glyph glyph-name="nine" unicode="9" 
d="M215 967q0 -168 88 -261q88 -94 242 -94q155 0 241 104t86 260q0 157 -86 256t-244 99q-157 0 -242 -98t-85 -266zM530 502q-202 0 -324 127t-122 339t119 344t346 132q506 0 506 -729q-1 -356 -145 -550t-382 -194q-176 0 -290 88t-129 258h133q47 -236 280 -235
q98 0 172 43t114 105q98 152 116 493l-4 4q-137 -225 -390 -225z" />
    <glyph glyph-name="colon" unicode=":" horiz-adv-x="569" 
d="M358 827h-149v181h149v-181zM358 0h-149v180h149v-180z" />
    <glyph glyph-name="semicolon" unicode=";" horiz-adv-x="569" 
d="M358 827h-149v181h149v-181zM358 180v-241q0 -172 -149 -220v76q70 43 70 135v70h-70v180h149z" />
    <glyph glyph-name="less" unicode="&#x3c;" horiz-adv-x="1351" 
d="M326 522l862 -403v-131l-1024 481v109l1024 456v-131z" />
    <glyph glyph-name="equal" unicode="=" horiz-adv-x="1351" 
d="M1188 377v-123h-1024v123h1024zM1188 774v-123h-1024v123h1024z" />
    <glyph glyph-name="greater" unicode="&#x3e;" horiz-adv-x="1351" 
d="M1188 578v-109l-1024 -481v131l862 403l-862 381v131z" />
    <glyph glyph-name="question" unicode="?" horiz-adv-x="1024" 
d="M580 0h-150v180h150v-180zM561 373h-119q-2 133 19 218q20 85 94 163q27 27 91 88t96 96t63 91t31 110q0 115 -86 189t-234 75q-148 0 -232 -98q-85 -98 -81 -248h-125q-14 201 112 329t332 127q205 0 325 -104t120 -281q0 -82 -41 -154q-40 -72 -94 -119
q-168 -145 -220 -225q-51 -81 -51 -257z" />
    <glyph glyph-name="at" unicode="@" horiz-adv-x="1638" 
d="M1028 930q0 61 -40 105t-101 44q-150 0 -253 -165t-104 -324q0 -78 42 -134t118 -55q130 1 234 187t104 342zM1049 425q0 -50 59 -50q123 0 224 164t102 333q0 242 -169 390t-411 149q-281 0 -465 -200q-184 -201 -184 -481t188 -474t465 -193q160 0 306 74t237 205h121
q-96 -176 -278 -278t-386 -103q-328 0 -552 228q-224 227 -224 549t227 548t533 227q306 0 510 -184q205 -184 204 -463q0 -236 -152 -416t-325 -182q-59 0 -109 28t-67 79q-97 -103 -235 -103t-216 89t-77 225q0 136 62 276q63 142 183 240t263 98q74 0 136 -36t93 -99
l31 94h137l-207 -618q-24 -78 -24 -116z" />
    <glyph glyph-name="A" unicode="A" horiz-adv-x="1366" 
d="M684 1356l-289 -774h578zM174 0h-143l579 1475h158l565 -1475h-143l-170 463h-672z" />
    <glyph glyph-name="B" unicode="B" horiz-adv-x="1366" 
d="M768 0h-602v1475h532q483 0 484 -371q0 -143 -68 -222t-168 -96v-4q150 -24 226 -120t77 -246q0 -416 -481 -416zM305 1356v-533h352q209 0 297 70t88 210t-93 196t-322 57h-322zM305 705v-586h354q248 0 350 57q101 58 101 234t-108 235t-326 60h-371z" />
    <glyph glyph-name="C" unicode="C" horiz-adv-x="1478" 
d="M748 1395q-252 1 -381 -185t-129 -469q0 -493 314 -623q91 -38 208 -38q184 0 304 110t163 295h145q-55 -238 -209 -381t-430 -143q-472 0 -599 478q-36 136 -36 298q0 401 186 589t500 187q231 -1 384 -121t188 -345h-144q-41 184 -155 266q-115 82 -309 82z" />
    <glyph glyph-name="D" unicode="D" horiz-adv-x="1478" 
d="M305 1356v-1237h334q217 0 353 71t188 226q51 154 51 323q0 426 -254 561q-102 55 -338 56h-334zM670 0h-504v1475h504q148 0 254 -22t200 -89q130 -96 188 -270t58 -355q0 -365 -178 -559q-160 -180 -522 -180z" />
    <glyph glyph-name="E" unicode="E" horiz-adv-x="1251" 
d="M1167 0h-1001v1475h981v-119h-842v-533h760v-118h-760v-586h862v-119z" />
    <glyph glyph-name="F" unicode="F" 
d="M291 0h-139v1475h950v-119h-811v-533h737v-118h-737v-705z" />
    <glyph glyph-name="G" unicode="G" horiz-adv-x="1593" 
d="M793 643v119h630v-762h-118v252q-82 -141 -213 -216t-338 -75q-291 0 -468 202t-177 563t174 574t508 213q241 -1 405 -119t211 -347h-143q-37 162 -165 255t-298 93q-281 -1 -417 -189t-136 -516q0 -256 145 -433t389 -177q133 0 255 62q245 125 253 501h-497z" />
    <glyph glyph-name="H" unicode="H" horiz-adv-x="1478" 
d="M303 0h-139v1475h139v-633h873v633h139v-1475h-139v723h-873v-723z" />
    <glyph glyph-name="I" unicode="I" horiz-adv-x="569" 
d="M354 0h-139v1475h139v-1475z" />
    <glyph glyph-name="J" unicode="J" horiz-adv-x="1024" 
d="M45 467h139q0 -141 16 -205q16 -63 45 -95q69 -79 207 -79t198 80t61 240v1067h139v-1072q0 -442 -416 -442q-242 0 -319 157q-70 138 -70 349z" />
    <glyph glyph-name="K" unicode="K" horiz-adv-x="1366" 
d="M313 0h-139v1475h139v-764l756 764h158l-582 -588l684 -887h-170l-614 801l-232 -232v-569z" />
    <glyph glyph-name="L" unicode="L" 
d="M1096 0h-930v1475h139v-1356h791v-119z" />
    <glyph glyph-name="M" unicode="M" horiz-adv-x="1705" 
d="M299 0h-139v1475h213l483 -1301h4l475 1301h211v-1475h-139v1315h-4l-483 -1315h-132l-485 1315h-4v-1315z" />
    <glyph glyph-name="N" unicode="N" horiz-adv-x="1478" 
d="M301 1286v-1286h-139v1475h157l852 -1289h5v1289h139v-1475h-162l-848 1286h-4z" />
    <glyph glyph-name="O" unicode="O" horiz-adv-x="1593" 
d="M248 735q0 -283 138 -469t410 -186q271 0 409 187t138 481t-147 470t-403 177q-179 1 -307 -95q-238 -178 -238 -565zM794 1513q326 0 508 -219t181 -556q0 -337 -180 -557t-508 -220t-507 220t-180 555t180 556q180 221 506 221z" />
    <glyph glyph-name="P" unicode="P" horiz-adv-x="1251" 
d="M299 770h319q214 0 318 64t104 239q0 283 -381 283h-360v-586zM1180 1063q0 -406 -566 -412h-315v-651h-139v1475h538q481 0 482 -412z" />
    <glyph glyph-name="Q" unicode="Q" horiz-adv-x="1593" 
d="M1333 724q0 330 -152 501q-153 170 -399 170q-137 -1 -243 -55t-171 -148q-132 -191 -131 -466q1 -276 139 -461t410 -185q147 0 258 65l-167 129l73 97l199 -152q184 175 184 505zM784 -39q-328 0 -506 220t-180 546q0 326 167 551q81 109 214 172t299 63
q317 0 506 -204q188 -205 188 -580t-221 -590l197 -151l-78 -94l-217 167q-158 -100 -369 -100z" />
    <glyph glyph-name="R" unicode="R" horiz-adv-x="1366" 
d="M741 670h-438v-670h-139v1475h577q502 0 502 -388q0 -139 -55 -221t-184 -139q124 -41 158 -167q26 -96 30 -244t18 -214t43 -88v-14h-153q-33 59 -47 263t-19 226q-23 109 -95 145q-73 36 -198 36zM303 788h434q166 0 267 73q100 73 100 220q0 274 -359 275h-442v-568z
" />
    <glyph glyph-name="S" unicode="S" horiz-adv-x="1251" 
d="M88 440h135q31 -360 424 -360q186 0 281 87q94 87 94 218q0 91 -49 153t-129 92t-175 52t-191 50q-96 26 -177 67q-80 41 -129 122t-49 197q0 164 132 280t369 116q236 0 366 -126q130 -124 128 -315h-133q0 160 -104 241t-258 81q-197 1 -289 -99t-72 -227
q22 -142 207 -202q80 -26 174 -45q232 -47 351 -112q75 -42 121 -122t46 -197q0 -203 -142 -317t-389 -113q-246 0 -394 124t-148 355z" />
    <glyph glyph-name="T" unicode="T" 
d="M33 1356v119h1073v-119h-467v-1356h-139v1356h-467z" />
    <glyph glyph-name="U" unicode="U" horiz-adv-x="1478" 
d="M168 555v920h139v-879q1 -272 103 -394t332 -122t330 125q99 125 99 391v879h140v-920q-1 -289 -145 -441t-428 -153t-427 153t-143 441z" />
    <glyph glyph-name="V" unicode="V" horiz-adv-x="1251" 
d="M549 0l-512 1475h145l445 -1311l442 1311h145l-512 -1475h-153z" />
    <glyph glyph-name="W" unicode="W" horiz-adv-x="1820" 
d="M987 1475l336 -1278h4l322 1278h143l-387 -1475h-154l-342 1303h-4l-342 -1303h-153l-381 1475h139l317 -1278h4l342 1278h156z" />
    <glyph glyph-name="X" unicode="X" horiz-adv-x="1251" 
d="M1053 0l-430 651l-428 -651h-158l508 758l-488 717h162l404 -621l405 621h162l-483 -717l505 -758h-159z" />
    <glyph glyph-name="Y" unicode="Y" horiz-adv-x="1251" 
d="M690 0h-139v633l-526 842h159l434 -711l445 711h162l-535 -832v-643z" />
    <glyph glyph-name="Z" unicode="Z" horiz-adv-x="1251" 
d="M1186 0h-1123v117l945 1239h-865v119h1037v-117l-944 -1239h950v-119z" />
    <glyph glyph-name="bracketleft" unicode="[" horiz-adv-x="681" 
d="M573 -391h-387v1904h392v-102h-261v-1700h256v-102z" />
    <glyph glyph-name="backslash" unicode="\" horiz-adv-x="569" 
d="M461 -184l-481 1697h114l481 -1697h-114z" />
    <glyph glyph-name="bracketright" unicode="]" horiz-adv-x="681" 
d="M496 1513v-1904h-392v102h261v1700h-256v102h387z" />
    <glyph glyph-name="asciicircum" unicode="^" horiz-adv-x="1351" 
d="M268 502h-118l471 928h106l473 -928h-117l-411 803z" />
    <glyph glyph-name="underscore" unicode="_" horiz-adv-x="1024" 
d="M0 -154h1024v-102h-1024v102z" />
    <glyph glyph-name="grave" unicode="`" horiz-adv-x="681" 
d="M375 1176l-283 284h160l227 -284h-104z" />
    <glyph glyph-name="a" unicode="a" 
d="M842 764q0 215 -264 215q-138 0 -216 -54t-94 -186h-125q12 179 131 265q118 86 300 86q389 0 391 -330v-578q-1 -74 25 -91t104 9v-96q-60 -20 -92 -20t-60 6q-94 14 -98 157q-158 -176 -395 -176q-150 0 -252 80t-103 225q0 271 371 320l170 22q107 10 157 32t50 114z
M842 391v166q-104 -43 -318 -59q-299 -23 -299 -226q0 -92 68 -141t162 -49q159 0 273 78t114 231z" />
    <glyph glyph-name="b" unicode="b" horiz-adv-x="1251" 
d="M285 186v-186h-123v1475h123v-584q57 94 160 146t219 53q229 0 351 -161t122 -407t-118 -398t-362 -153q-105 -1 -211 57t-157 158h-4zM285 528q0 -192 95 -319t259 -127t264 111t103 305q8 209 -86 345t-266 136t-271 -129q-98 -130 -98 -322z" />
    <glyph glyph-name="c" unicode="c" 
d="M584 979q-176 0 -266 -133q-90 -132 -91 -318q0 -186 89 -316t268 -130q135 0 219 76t106 209h131q-33 -184 -148 -290q-116 -105 -308 -106q-242 0 -365 154t-123 395q0 242 130 406t358 164q385 -1 440 -363h-125q-70 252 -315 252z" />
    <glyph glyph-name="d" unicode="d" horiz-adv-x="1251" 
d="M967 1475h123v-1475h-123v186h-4q-51 -100 -157 -157t-212 -58q-244 0 -362 153q-118 152 -118 398t123 407q122 161 351 161q114 0 218 -52t161 -147v584zM612 82q164 0 260 127t95 319t-99 322q-98 129 -270 129t-266 -136t-86 -345q2 -196 102 -306t264 -110z" />
    <glyph glyph-name="e" unicode="e" 
d="M580 82q122 0 208 64t113 180h137q-109 -354 -458 -355q-244 0 -366 153q-122 154 -122 398t133 406t355 162t345 -152q124 -152 122 -436h-824q-2 -180 92 -300t265 -120zM915 604q0 162 -88 268q-89 106 -245 106t-248 -106t-111 -268h692z" />
    <glyph glyph-name="f" unicode="f" horiz-adv-x="569" 
d="M199 958h-158v103h158v168q0 274 225 274q59 0 102 -8v-113q-157 38 -187 -56q-17 -53 -17 -134v-131h204v-103h-204v-958h-123v958z" />
    <glyph glyph-name="g" unicode="g" horiz-adv-x="1251" 
d="M967 874v187h123v-959q0 -228 -97 -373q-109 -163 -401 -163q-213 0 -327 95t-122 210h131q45 -195 318 -195q96 0 168 29t112 74q102 117 95 391q-57 -94 -161 -146t-218 -53q-229 0 -351 161q-122 160 -122 406t117 399q118 153 362 153q106 0 212 -58t157 -158h4z
M598 82q172 0 270 129t99 321t-95 320q-96 127 -260 127t-264 -111t-102 -305q-8 -209 86 -345t266 -136z" />
    <glyph glyph-name="h" unicode="h" 
d="M866 692q0 287 -256 287q-126 0 -204 -59q-78 -58 -107 -140t-29 -209v-571h-123v1475h123v-562q82 89 161 133t181 44q219 0 324 -152q53 -78 53 -244v-694h-123v692z" />
    <glyph glyph-name="i" unicode="i" horiz-adv-x="454" 
d="M295 1292h-135v183h135v-183zM289 0h-123v1061h123v-1061z" />
    <glyph glyph-name="j" unicode="j" horiz-adv-x="454" 
d="M309 1475v-183h-135v183h135zM180 1061h123v-1202q0 -154 -38 -215t-175 -62q-45 0 -80 8v109q100 -13 135 21t35 122v1219z" />
    <glyph glyph-name="k" unicode="k" horiz-adv-x="1024" 
d="M262 0h-123v1475h123v-918l520 504h168l-397 -383l444 -678h-137l-397 592l-201 -191v-401z" />
    <glyph glyph-name="l" unicode="l" horiz-adv-x="454" 
d="M289 0h-123v1475h123v-1475z" />
    <glyph glyph-name="m" unicode="m" horiz-adv-x="1705" 
d="M254 571v-571h-123v1061h123v-160h4q47 90 135 139q88 50 208 50t189 -54t107 -151q104 205 346 205q207 0 275 -133q55 -108 55 -287v-670h-123v733q0 121 -51 183t-189 62t-227 -120q-70 -90 -70 -287v-571h-122v733q1 121 -51 183t-190 62t-226 -120q-70 -90 -70 -287
z" />
    <glyph glyph-name="n" unicode="n" 
d="M866 692q0 287 -256 287q-126 0 -204 -59q-78 -58 -107 -140t-29 -209v-571h-123v1061h123v-148q82 89 161 133t181 44q219 0 324 -152q53 -78 53 -244v-694h-123v692z" />
    <glyph glyph-name="o" unicode="o" 
d="M572 979q-182 0 -273 -129q-90 -129 -90 -326q0 -198 94 -320t270 -122t267 130q90 130 89 326t-88 318q-87 123 -269 123zM1061 527q-1 -249 -135 -403t-353 -151t-357 147t-138 399t128 413t366 158t363 -157q126 -157 126 -406z" />
    <glyph glyph-name="p" unicode="p" horiz-adv-x="1251" 
d="M285 -418h-123v1479h123v-187h4q51 100 156 158t212 58q244 0 362 -153t118 -399t-122 -406t-351 -161q-114 1 -218 53t-161 146v-588zM285 532q0 -192 98 -321t270 -129t267 136q94 136 86 345q-2 195 -102 305t-265 111q-164 0 -259 -127q-95 -128 -95 -320z" />
    <glyph glyph-name="q" unicode="q" horiz-adv-x="1251" 
d="M967 874v187h123v-1479h-123v588q-57 -94 -161 -146t-218 -53q-229 0 -351 161q-122 160 -122 406t117 399q118 153 362 153q106 0 212 -58t157 -158h4zM612 82q164 0 260 127t95 319t-99 322q-98 129 -270 129t-266 -136t-86 -345q2 -196 102 -306t264 -110z" />
    <glyph glyph-name="r" unicode="r" horiz-adv-x="681" 
d="M276 520v-520h-122v1061h122v-199h5q49 125 129 176t217 52v-134q-351 8 -351 -436z" />
    <glyph glyph-name="s" unicode="s" horiz-adv-x="1024" 
d="M531 82q133 0 201 57t67 141q0 84 -70 128q-70 45 -170 63q-101 18 -201 43q-100 26 -170 92t-70 190t100 210q99 84 274 84q367 0 409 -334h-125q-31 223 -287 223q-115 0 -177 -49t-62 -125t50 -119t126 -60t164 -42t164 -53t126 -91t50 -159q0 -147 -119 -229
t-307 -81t-295 103t-115 258h125q29 -134 104 -192t208 -58z" />
    <glyph glyph-name="t" unicode="t" horiz-adv-x="569" 
d="M379 -29q-94 0 -141 48t-48 163v776h-149v103h149v295h123v-295h199v-103h-199v-727q-1 -89 17 -119t76 -30t114 14v-100q-115 -25 -141 -25z" />
    <glyph glyph-name="u" unicode="u" 
d="M866 483v578h123v-1061h-123v147q-47 -53 -79 -81q-33 -28 -105 -62q-72 -33 -158 -33q-377 0 -377 391v699h123v-696q0 -283 273 -283q151 0 237 112t86 289z" />
    <glyph glyph-name="v" unicode="v" horiz-adv-x="1024" 
d="M440 0l-405 1061h133l344 -909l344 909h133l-411 -1061h-138z" />
    <glyph glyph-name="w" unicode="w" horiz-adv-x="1478" 
d="M811 1061l233 -897l279 897h125l-344 -1061h-131l-232 891h-4l-235 -891h-148l-323 1061h123l274 -905l246 905h137z" />
    <glyph glyph-name="x" unicode="x" horiz-adv-x="1024" 
d="M838 0l-322 459l-330 -459h-149l407 549l-374 512h151l293 -422l301 422h156l-383 -512l397 -549h-147z" />
    <glyph glyph-name="y" unicode="y" horiz-adv-x="1024" 
d="M255 -301q50 0 87 47t68 138t39 108l-412 1069h137l340 -911l340 911h133l-395 -1047q-111 -294 -178 -363t-142 -69q-76 0 -133 15v114q66 -12 116 -12z" />
    <glyph glyph-name="z" unicode="z" horiz-adv-x="1024" 
d="M956 0h-888v109l704 849h-657v103h815v-109l-705 -850h731v-102z" />
    <glyph glyph-name="braceleft" unicode="{" horiz-adv-x="681" 
d="M260 809v373q0 186 62 260t235 67q-166 -57 -166 -247v-394q0 -134 -34 -206t-134 -99v-4q96 -23 132 -89t36 -187v-422q0 -105 42 -163t138 -85v-4q-175 -3 -243 65t-68 230v418q0 102 -35 160t-133 77v4q106 31 137 83t31 163z" />
    <glyph glyph-name="bar" unicode="|" horiz-adv-x="454" 
d="M166 1536h123v-2048h-123v2048z" />
    <glyph glyph-name="braceright" unicode="}" horiz-adv-x="681" 
d="M416 1227v-418q0 -103 35 -161t133 -77v-4q-106 -31 -138 -83t-30 -162v-373q0 -186 -62 -260t-235 -68q166 57 166 248v393q0 133 33 206q34 73 135 99v4q-96 23 -132 89t-36 188v422q0 104 -42 162t-139 86v4q176 2 244 -66t68 -229z" />
    <glyph glyph-name="asciitilde" unicode="~" horiz-adv-x="1351" 
d="M459 664q73 0 235 -74t209 -74q109 0 203 178l82 -69q-117 -223 -287 -224q-68 0 -276 86q-10 4 -70 33t-101 29q-82 0 -134 -66q-53 -66 -89 -127l-67 97q41 61 70 97q30 36 90 75t135 39z" />
    <glyph glyph-name="uni00A0" unicode="&#xa0;" horiz-adv-x="569" 
 />
    <glyph glyph-name="exclamdown" unicode="&#xa1;" horiz-adv-x="681" 
d="M416 911h-150v179h150v-179zM416 -383h-150v459l29 645h92l29 -645v-459z" />
    <glyph glyph-name="cent" unicode="&#xa2;" 
d="M580 82q135 0 219 76t106 209h131q-24 -168 -144 -282t-312 -114q-70 0 -140 17l-92 -277h-96l100 307q-128 62 -194 196t-66 314q0 264 136 412t352 150q59 0 120 -11l82 246h99l-90 -274q193 -82 229 -324h-125q-37 141 -143 207l-277 -838q57 -14 105 -14zM580 979
q-176 0 -266 -133t-91 -318q0 -124 42 -230t126 -159l273 830q-33 10 -84 10z" />
    <glyph glyph-name="sterling" unicode="&#xa3;" 
d="M717 748v-86h-309q23 -80 22 -140q0 -184 -197 -385l5 -4q106 55 195 55t191 -43t170 -43q66 0 114 30t108 87l69 -104q-91 -84 -163 -114t-193 -30q-43 0 -162 45t-193 45t-222 -67l-72 119q217 158 217 368q0 94 -43 181h-203v86h166q-2 4 -39 70t-53 122
q-16 55 -16 129q0 168 118 271q119 104 332 104t343 -121t128 -324h-135q-6 160 -93 247q-88 87 -228 87q-140 -1 -237 -71t-97 -199q0 -99 81 -223q44 -69 56 -92h340z" />
    <glyph glyph-name="currency" unicode="&#xa4;" 
d="M938 616q0 152 -106 262t-254 107q-160 5 -269 -103t-106 -268q-1 -147 107 -257q108 -109 258 -109t260 108t110 260zM1083 620q0 -163 -98 -309l88 -86l-106 -108l-90 88q-139 -103 -305 -103t-310 103l-90 -88l-106 108l88 86q-98 145 -98 309t98 304l-88 88l106 108
l90 -88q134 100 302 100t313 -100l90 88l106 -108l-88 -88q98 -141 98 -304z" />
    <glyph glyph-name="yen" unicode="&#xa5;" 
d="M1008 889v-111h-295l-78 -135v-86h373v-111h-373v-446h-131v446h-373v111h373v86l-78 135h-295v111h227l-350 586h156l403 -711l414 711h149l-350 -586h228z" />
    <glyph glyph-name="brokenbar" unicode="&#xa6;" horiz-adv-x="454" 
d="M166 358h123v-716h-123v716zM166 1382h123v-716h-123v716z" />
    <glyph glyph-name="section" unicode="&#xa7;" 
d="M209 1217q0 127 98 211q99 84 271 85q172 0 265 -98t91 -268h-111q-8 253 -240 255q-115 0 -179 -49t-64 -137t72 -158t175 -125t207 -115t175 -144t71 -186t-57 -172t-168 -144q119 -111 119 -225q0 -152 -102 -235t-267 -83q-164 1 -264 101t-108 272h124
q0 -127 66 -195q66 -67 175 -67t177 51t68 143t-80 164q-49 44 -148 111l-268 168q-104 65 -156 137q-53 72 -53 171t62 177t157 119q-55 61 -81 113t-27 123zM209 702q0 -70 47 -122t127 -105l365 -235q182 100 182 231q0 72 -51 125q-52 53 -136 102l-354 217
q-180 -76 -180 -213z" />
    <glyph glyph-name="dieresis" unicode="&#xa8;" horiz-adv-x="681" 
d="M449 1196v209h133v-209h-133zM123 1196v209h133v-209h-133z" />
    <glyph glyph-name="copyright" unicode="&#xa9;" horiz-adv-x="1638" 
d="M856 297q-194 0 -312 127q-118 126 -118 322t115 320t309 124q144 0 244 -78t120 -215h-110q-16 90 -87 146t-165 57q-147 0 -227 -100t-80 -250t84 -256t227 -107q94 1 165 59t83 152h110q-14 -135 -117 -218t-241 -83zM166 738q0 -286 186 -480t468 -195q282 0 467 195
q185 194 185 480t-184 480q-186 194 -468 194t-468 -194t-186 -480zM821 -39q-322 0 -550 228q-228 229 -228 549t228 548t550 227q322 0 548 -227t226 -549t-226 -549t-548 -227z" />
    <glyph glyph-name="ordfeminine" unicode="&#xaa;" horiz-adv-x="684" 
d="M502 1320q0 58 -42 95t-130 37q-182 0 -201 -149h-82q8 106 86 158t199 52q250 0 250 -198v-346q0 -43 16 -55t68 6v-58q-47 -16 -99 -10q-61 10 -65 96q-100 -106 -256 -106q-96 0 -163 47t-67 135q0 162 240 193l111 14q74 6 106 20q29 11 29 69zM502 1094v100
q-61 -25 -207 -37q-199 -14 -199 -135q0 -55 46 -87t129 -32q83 -1 157 49t74 142z" />
    <glyph glyph-name="guillemotleft" unicode="&#xab;" 
d="M231 467v129l299 231v-129l-213 -168l213 -163v-127zM608 467v129l299 231v-129l-213 -168l213 -163v-127z" />
    <glyph glyph-name="logicalnot" unicode="&#xac;" horiz-adv-x="1351" 
d="M1057 229v422h-893v123h1024v-545h-131z" />
    <glyph glyph-name="uni00AD" unicode="&#xad;" horiz-adv-x="681" 
d="M82 596h518v-127h-518v127z" />
    <glyph glyph-name="registered" unicode="&#xae;" horiz-adv-x="1638" 
d="M639 788h203q127 0 149 10t48 20q26 12 36 28q29 48 29 104q0 57 -35 93t-77 44t-105 9h-248v-308zM639 705v-400h-107v866h379q166 0 237 -58t71 -171q-1 -229 -273 -237l262 -400h-127l-247 400h-195zM166 738q0 -286 186 -480t468 -195q282 0 467 195q185 194 185 480
t-184 480q-186 194 -468 194t-468 -194t-186 -480zM821 -39q-322 0 -550 228q-228 229 -228 549t228 548t550 227q322 0 548 -227t226 -549t-226 -549t-548 -227z" />
    <glyph glyph-name="macron" unicode="&#xaf;" horiz-adv-x="681" 
d="M47 1253v93h606v-93h-606z" />
    <glyph glyph-name="degree" unicode="&#xb0;" horiz-adv-x="819" 
d="M409 911q93 0 159 66t67 159q0 94 -67 160q-68 66 -160 66t-159 -67t-66 -159t67 -159q66 -66 159 -66zM717 1136q0 -126 -90 -216t-217 -90t-217 90q-89 90 -91 216t89 217t219 91t217 -91q90 -91 90 -217z" />
    <glyph glyph-name="plusminus" unicode="&#xb1;" horiz-adv-x="1351" 
d="M164 0v123h1024v-123h-1024zM614 676v348h123v-348h451v-123h-451v-348h-123v348h-450v123h450z" />
    <glyph glyph-name="twosuperior" unicode="&#xb2;" horiz-adv-x="681" 
d="M57 1229q0 129 83 207t221 78t214 -68t76 -160t-47 -157t-102 -97q-56 -32 -140 -75q-84 -44 -118 -68q-119 -82 -123 -176h522v-66h-612q0 135 67 207q108 116 309 212q62 30 107 82t45 128t-59 124q-58 48 -148 48t-150 -64t-55 -155h-90z" />
    <glyph glyph-name="threesuperior" unicode="&#xb3;" horiz-adv-x="681" 
d="M272 1128q131 0 200 36t69 121q-1 85 -57 124t-144 39t-144 -52t-57 -134h-84q0 117 90 194q70 57 200 57t206 -55t76 -158q0 -139 -133 -194q166 -47 165 -213q-1 -111 -81 -185t-234 -76q-154 -1 -230 58t-91 207h86q0 -96 63 -148q62 -53 166 -53t172 60t63 135
q-6 192 -301 174v63z" />
    <glyph glyph-name="acute" unicode="&#xb4;" horiz-adv-x="681" 
d="M328 1176h-105l228 284h157z" />
    <glyph glyph-name="mu" unicode="&#xb5;" 
d="M866 483v578h123v-1061h-123v147q-47 -53 -79 -81q-33 -28 -105 -62q-72 -33 -158 -33q-147 0 -254 66v-455h-123v1479h123v-696q0 -283 273 -283q151 0 237 112t86 289z" />
    <glyph glyph-name="paragraph" unicode="&#xb6;" horiz-adv-x="1331" 
d="M528 -299v987q-158 -2 -276 115t-117 291q0 174 121 276q121 104 336 105h444v-1774h-123v1636h-262v-1636h-123z" />
    <glyph glyph-name="periodcentered" unicode="&#xb7;" horiz-adv-x="569" 
d="M285 815q39 0 69 -29q30 -30 29 -70q0 -40 -29 -70q-30 -30 -70 -30t-70 30t-30 70t31 70t70 29z" />
    <glyph glyph-name="cedilla" unicode="&#xb8;" horiz-adv-x="681" 
d="M408 -262q0 43 -30 63q-30 21 -66 21t-97 -17l-31 27l123 168h80l-96 -121q49 12 93 12q44 -1 88 -33t50 -73q18 -102 -49 -156q-68 -53 -164 -53t-198 39l30 61q92 -30 137 -30t88 24q42 25 42 68z" />
    <glyph glyph-name="onesuperior" unicode="&#xb9;" horiz-adv-x="681" 
d="M420 647v643h-242v53q116 7 162 28q47 21 68 54q20 33 30 88h68v-866h-86z" />
    <glyph glyph-name="ordmasculine" unicode="&#xba;" horiz-adv-x="684" 
d="M343 1452q-121 0 -181 -80t-60 -198q0 -117 64 -194t178 -77q115 0 176 81q62 81 62 198q0 118 -60 194t-179 76zM23 1172q0 154 82 247q83 94 238 94t237 -94q82 -93 82 -243t-88 -242t-230 -90q-141 2 -231 88t-90 240z" />
    <glyph glyph-name="guillemotright" unicode="&#xbb;" 
d="M530 600v-129l-299 -231v129l213 168l-213 163v127zM907 600v-129l-299 -231v129l213 168l-213 163v127z" />
    <glyph glyph-name="onequarter" unicode="&#xbc;" horiz-adv-x="1708" 
d="M324 647v643h-242v53q116 7 162 28q47 21 67 54t31 88h68v-866h-86zM449 -29h-105l909 1473h105zM1411 281v458l-344 -458h344zM1411 0v213h-428v68l436 577h78v-577h129v-68h-129v-213h-86z" />
    <glyph glyph-name="onehalf" unicode="&#xbd;" horiz-adv-x="1708" 
d="M1032 582q0 128 83 206t221 78t214 -68t76 -159q0 -92 -47 -157q-47 -64 -102 -96t-139 -76t-119 -68q-119 -82 -123 -176h522v-66h-612q0 135 67 207t157 127t151 85q62 30 108 82q45 52 45 128t-59 124t-149 48q-90 -1 -148 -65q-60 -64 -56 -154h-90zM324 647v643
h-242v53q116 7 162 28q47 21 67 54t31 88h68v-866h-86zM367 -29h-105l909 1473h105z" />
    <glyph glyph-name="threequarters" unicode="&#xbe;" horiz-adv-x="1708" 
d="M530 -29h-104l909 1473h105zM332 1128q132 0 200 36t68 121t-56 124t-144 39t-145 -52q-56 -52 -56 -134h-84q0 117 90 194q70 57 200 57q129 0 205 -55t76 -158q0 -139 -133 -194q166 -47 166 -213q0 -111 -81 -185q-80 -74 -234 -76q-154 -1 -231 58t-91 207h86
q0 -96 63 -148q63 -53 167 -53t171 60q68 60 64 135q-6 192 -301 174v63zM1411 0v213h-428v68l436 577h78v-577h129v-68h-129v-213h-86zM1411 281v458l-344 -458h344z" />
    <glyph glyph-name="questiondown" unicode="&#xbf;" horiz-adv-x="1024" 
d="M444 1090h150v-181h-150v181zM502 -424q-205 0 -325 104t-120 281q0 82 41 155q40 72 94 118q167 142 228 239q43 68 43 244h119q2 -133 -18 -218t-95 -163q-27 -27 -91 -88t-96 -96q-32 -36 -63 -92t-31 -109q0 -115 86 -190t234 -75t232 99q85 98 81 248h125
q14 -201 -112 -329t-332 -128z" />
    <glyph glyph-name="Agrave" unicode="&#xc0;" horiz-adv-x="1366" 
d="M717 1589l-283 285h160l227 -285h-104zM684 1356l-289 -774h578zM174 0h-143l579 1475h158l565 -1475h-143l-170 463h-672z" />
    <glyph glyph-name="Aacute" unicode="&#xc1;" horiz-adv-x="1366" 
d="M670 1589h-105l228 285h157zM684 1356l-289 -774h578zM174 0h-143l579 1475h158l565 -1475h-143l-170 463h-672z" />
    <glyph glyph-name="Acircumflex" unicode="&#xc2;" horiz-adv-x="1366" 
d="M692 1798l-168 -209h-133l234 285h137l231 -285h-133zM684 1356l-289 -774h578zM174 0h-143l579 1475h158l565 -1475h-143l-170 463h-672z" />
    <glyph glyph-name="Atilde" unicode="&#xc3;" horiz-adv-x="1366" 
d="M848 1720q70 0 90 103h78q-2 -18 -17 -78q-53 -123 -151 -123q-58 0 -156 46t-141 46t-66 -26q-22 -27 -36 -74h-74q6 63 41 121q31 45 80 65t91 11t132 -50t129 -41zM684 1356l-289 -774h578zM174 0h-143l579 1475h158l565 -1475h-143l-170 463h-672z" />
    <glyph glyph-name="Adieresis" unicode="&#xc4;" horiz-adv-x="1366" 
d="M791 1610v209h133v-209h-133zM465 1610v209h133v-209h-133zM684 1356l-289 -774h578zM174 0h-143l579 1475h158l565 -1475h-143l-170 463h-672z" />
    <glyph glyph-name="Aring" unicode="&#xc5;" horiz-adv-x="1366" 
d="M724 1665q54 0 95 41t41 95t-40 95t-95 41t-96 -41t-41 -96t41 -95t95 -40zM724 1597q-83 1 -143 61t-61 142q0 82 62 144t143 61q82 0 142 -61q61 -60 61 -144t-60 -144t-144 -59zM684 1356l-289 -774h578zM174 0h-143l579 1475h158l565 -1475h-143l-170 463h-672z" />
    <glyph glyph-name="AE" unicode="&#xc6;" horiz-adv-x="2048" 
d="M967 582v774h-234l-330 -774h564zM1942 1475v-119h-836v-533h760v-118h-760v-586h860v-119h-999v463h-621l-196 -463h-140l641 1475h1291z" />
    <glyph glyph-name="Ccedilla" unicode="&#xc7;" horiz-adv-x="1478" 
d="M748 1395q-252 1 -381 -185t-129 -469q0 -493 314 -623q91 -38 208 -38q184 0 304 110t163 295h145q-52 -231 -200 -373t-414 -149l-68 -84q49 12 93 12q44 -1 88 -33t51 -73q18 -101 -50 -155t-164 -54t-198 39l31 61q92 -30 137 -30t87 24t42 68q0 43 -30 63
q-29 21 -65 21t-98 -17l-30 27l96 131q-199 12 -334 124q-135 111 -191 275t-57 375q0 401 186 589t500 187q231 -1 384 -121t188 -345h-144q-41 184 -155 266q-115 82 -309 82z" />
    <glyph glyph-name="Egrave" unicode="&#xc8;" horiz-adv-x="1251" 
d="M659 1589l-282 285h160l227 -285h-105zM1167 0h-1001v1475h981v-119h-842v-533h760v-118h-760v-586h862v-119z" />
    <glyph glyph-name="Eacute" unicode="&#xc9;" horiz-adv-x="1251" 
d="M612 1589h-104l227 285h158zM1167 0h-1001v1475h981v-119h-842v-533h760v-118h-760v-586h862v-119z" />
    <glyph glyph-name="Ecircumflex" unicode="&#xca;" horiz-adv-x="1251" 
d="M635 1798l-168 -209h-133l233 285h138l231 -285h-133zM1167 0h-1001v1475h981v-119h-842v-533h760v-118h-760v-586h862v-119z" />
    <glyph glyph-name="Edieresis" unicode="&#xcb;" horiz-adv-x="1251" 
d="M733 1610v209h133v-209h-133zM408 1610v209h133v-209h-133zM1167 0h-1001v1475h981v-119h-842v-533h760v-118h-760v-586h862v-119z" />
    <glyph glyph-name="Igrave" unicode="&#xcc;" horiz-adv-x="569" 
d="M319 1589l-282 285h160l227 -285h-105zM354 0h-139v1475h139v-1475z" />
    <glyph glyph-name="Iacute" unicode="&#xcd;" horiz-adv-x="569" 
d="M229 1589h-104l227 285h158zM354 0h-139v1475h139v-1475z" />
    <glyph glyph-name="Icircumflex" unicode="&#xce;" horiz-adv-x="569" 
d="M252 1798l-168 -209h-133l233 285h138l231 -285h-133zM354 0h-139v1475h139v-1475z" />
    <glyph glyph-name="Idieresis" unicode="&#xcf;" horiz-adv-x="569" 
d="M350 1610v209h133v-209h-133zM25 1610v209h133v-209h-133zM354 0h-139v1475h139v-1475z" />
    <glyph glyph-name="Eth" unicode="&#xd0;" horiz-adv-x="1478" 
d="M166 842v633h504q148 0 254 -22t200 -89q130 -96 188 -270t58 -355q0 -365 -178 -559q-160 -180 -522 -180h-504v723h-146v119h146zM305 1356v-514h330v-119h-330v-604h334q217 0 353 71t188 226q51 154 51 323q0 426 -254 561q-102 55 -338 56h-334z" />
    <glyph glyph-name="Ntilde" unicode="&#xd1;" horiz-adv-x="1478" 
d="M905 1720q70 0 90 103h78q-2 -18 -16 -78q-53 -123 -152 -123q-59 0 -156 46t-141 46t-66 -26t-36 -74h-74q6 63 41 121q31 45 80 65t91 11t132 -50t129 -41zM301 1286v-1286h-139v1475h157l852 -1289h5v1289h139v-1475h-162l-848 1286h-4z" />
    <glyph glyph-name="Ograve" unicode="&#xd2;" horiz-adv-x="1593" 
d="M831 1589l-282 285h160l227 -285h-105zM248 735q0 -283 138 -469t410 -186q271 0 409 187t138 481t-147 470t-403 177q-179 1 -307 -95q-238 -178 -238 -565zM794 1513q326 0 508 -219t181 -556q0 -337 -180 -557t-508 -220t-507 220t-180 555t180 556q180 221 506 221z
" />
    <glyph glyph-name="Oacute" unicode="&#xd3;" horiz-adv-x="1593" 
d="M784 1589h-104l227 285h158zM248 735q0 -283 138 -469t410 -186q271 0 409 187t138 481t-147 470t-403 177q-179 1 -307 -95q-238 -178 -238 -565zM794 1513q326 0 508 -219t181 -556q0 -337 -180 -557t-508 -220t-507 220t-180 555t180 556q180 221 506 221z" />
    <glyph glyph-name="Ocircumflex" unicode="&#xd4;" horiz-adv-x="1593" 
d="M807 1798l-168 -209h-133l233 285h138l231 -285h-133zM248 735q0 -283 138 -469t410 -186q271 0 409 187t138 481t-147 470t-403 177q-179 1 -307 -95q-238 -178 -238 -565zM794 1513q326 0 508 -219t181 -556q0 -337 -180 -557t-508 -220t-507 220t-180 555t180 556
q180 221 506 221z" />
    <glyph glyph-name="Otilde" unicode="&#xd5;" horiz-adv-x="1593" 
d="M963 1720q70 0 90 103h77q-2 -18 -16 -78q-53 -123 -151 -123q-59 0 -157 46t-140 46q-43 0 -66 -26t-37 -74h-74q6 63 41 121q31 45 80 65q50 20 92 11t132 -50t129 -41zM248 735q0 -283 138 -469t410 -186q271 0 409 187t138 481t-147 470t-403 177q-179 1 -307 -95
q-238 -178 -238 -565zM794 1513q326 0 508 -219t181 -556q0 -337 -180 -557t-508 -220t-507 220t-180 555t180 556q180 221 506 221z" />
    <glyph glyph-name="Odieresis" unicode="&#xd6;" horiz-adv-x="1593" 
d="M905 1610v209h133v-209h-133zM580 1610v209h133v-209h-133zM248 735q0 -283 138 -469t410 -186q271 0 409 187t138 481t-147 470t-403 177q-179 1 -307 -95q-238 -178 -238 -565zM794 1513q326 0 508 -219t181 -556q0 -337 -180 -557t-508 -220t-507 220t-180 555
t180 556q180 221 506 221z" />
    <glyph glyph-name="multiply" unicode="&#xd7;" horiz-adv-x="1351" 
d="M678 442l-432 -430l-76 74l432 432l-432 432l76 74l432 -430l430 430l76 -74l-430 -432l430 -432l-76 -74z" />
    <glyph glyph-name="Oslash" unicode="&#xd8;" horiz-adv-x="1593" 
d="M1477 735q-1 -334 -181 -554t-508 -220q-270 0 -448 162l-174 -199l-80 70l182 207q-166 205 -166 539t184 553q184 220 487 220q304 0 484 -178l170 195l80 -72l-178 -205q63 -72 105 -209t43 -309zM791 80q270 0 408 187t138 447t-100 433l-813 -928q139 -139 367 -139
zM786 1395q-137 -1 -243 -55t-171 -148q-132 -191 -132 -454q1 -263 116 -437l815 936q-143 158 -385 158z" />
    <glyph glyph-name="Ugrave" unicode="&#xd9;" horiz-adv-x="1478" 
d="M774 1589l-282 285h159l228 -285h-105zM168 555v920h139v-879q1 -272 103 -394t332 -122t330 125q99 125 99 391v879h140v-920q-1 -289 -145 -441t-428 -153t-427 153t-143 441z" />
    <glyph glyph-name="Uacute" unicode="&#xda;" horiz-adv-x="1478" 
d="M727 1589h-104l227 285h158zM168 555v920h139v-879q1 -272 103 -394t332 -122t330 125q99 125 99 391v879h140v-920q-1 -289 -145 -441t-428 -153t-427 153t-143 441z" />
    <glyph glyph-name="Ucircumflex" unicode="&#xdb;" horiz-adv-x="1478" 
d="M750 1798l-168 -209h-133l233 285h137l232 -285h-133zM168 555v920h139v-879q1 -272 103 -394t332 -122t330 125q99 125 99 391v879h140v-920q-1 -289 -145 -441t-428 -153t-427 153t-143 441z" />
    <glyph glyph-name="Udieresis" unicode="&#xdc;" horiz-adv-x="1478" 
d="M848 1610v209h133v-209h-133zM522 1610v209h133v-209h-133zM168 555v920h139v-879q1 -272 103 -394t332 -122t330 125q99 125 99 391v879h140v-920q-1 -289 -145 -441t-428 -153t-427 153t-143 441z" />
    <glyph glyph-name="Yacute" unicode="&#xdd;" horiz-adv-x="1251" 
d="M612 1589h-104l227 285h158zM690 0h-139v633l-526 842h159l434 -711l445 711h162l-535 -832v-643z" />
    <glyph glyph-name="Thorn" unicode="&#xde;" horiz-adv-x="1251" 
d="M299 463h319q213 0 318 63q104 63 104 240q0 283 -381 283h-360v-586zM299 0h-139v1475h139v-308h399q481 0 482 -411q0 -190 -120 -288q-152 -124 -446 -124h-315v-344z" />
    <glyph glyph-name="germandbls" unicode="&#xdf;" horiz-adv-x="1024" 
d="M432 768v102q322 8 322 254q0 123 -64 196t-212 73t-198 -73t-51 -228v-1092h-123v1114q0 389 383 389q178 0 287 -102q109 -103 109 -277t-172 -299q111 -39 169 -141t58 -225q0 -236 -114 -362t-318 -126q-45 0 -76 11v108q158 -29 268 56t109 270q0 184 -90 268
t-287 84z" />
    <glyph glyph-name="agrave" unicode="&#xe0;" 
d="M604 1176l-282 284h159l228 -284h-105zM842 764q0 215 -264 215q-138 0 -216 -54t-94 -186h-125q12 179 131 265q118 86 300 86q389 0 391 -330v-578q-1 -74 25 -91t104 9v-96q-60 -20 -92 -20t-60 6q-94 14 -98 157q-158 -176 -395 -176q-150 0 -252 80t-103 225
q0 271 371 320l170 22q107 10 157 32t50 114zM842 391v166q-104 -43 -318 -59q-299 -23 -299 -226q0 -92 68 -141t162 -49q159 0 273 78t114 231z" />
    <glyph glyph-name="aacute" unicode="&#xe1;" 
d="M557 1176h-104l227 284h158zM842 764q0 215 -264 215q-138 0 -216 -54t-94 -186h-125q12 179 131 265q118 86 300 86q389 0 391 -330v-578q-1 -74 25 -91t104 9v-96q-60 -20 -92 -20t-60 6q-94 14 -98 157q-158 -176 -395 -176q-150 0 -252 80t-103 225q0 271 371 320
l170 22q107 10 157 32t50 114zM842 391v166q-104 -43 -318 -59q-299 -23 -299 -226q0 -92 68 -141t162 -49q159 0 273 78t114 231z" />
    <glyph glyph-name="acircumflex" unicode="&#xe2;" 
d="M580 1384l-168 -208h-133l233 284h137l232 -284h-133zM842 764q0 215 -264 215q-138 0 -216 -54t-94 -186h-125q12 179 131 265q118 86 300 86q389 0 391 -330v-578q-1 -74 25 -91t104 9v-96q-60 -20 -92 -20t-60 6q-94 14 -98 157q-158 -176 -395 -176q-150 0 -252 80
t-103 225q0 271 371 320l170 22q107 10 157 32t50 114zM842 391v166q-104 -43 -318 -59q-299 -23 -299 -226q0 -92 68 -141t162 -49q159 0 273 78t114 231z" />
    <glyph glyph-name="atilde" unicode="&#xe3;" 
d="M735 1307q70 0 90 102h78q-2 -18 -16 -78q-53 -123 -152 -123q-59 0 -156 46t-141 46t-66 -26t-36 -74h-74q6 63 41 121q31 45 80 65t91 12t132 -50q90 -41 129 -41zM842 764q0 215 -264 215q-138 0 -216 -54t-94 -186h-125q12 179 131 265q118 86 300 86q389 0 391 -330
v-578q-1 -74 25 -91t104 9v-96q-60 -20 -92 -20t-60 6q-94 14 -98 157q-158 -176 -395 -176q-150 0 -252 80t-103 225q0 271 371 320l170 22q107 10 157 32t50 114zM842 391v166q-104 -43 -318 -59q-299 -23 -299 -226q0 -92 68 -141t162 -49q159 0 273 78t114 231z" />
    <glyph glyph-name="adieresis" unicode="&#xe4;" 
d="M678 1196v209h133v-209h-133zM352 1196v209h133v-209h-133zM842 764q0 215 -264 215q-138 0 -216 -54t-94 -186h-125q12 179 131 265q118 86 300 86q389 0 391 -330v-578q-1 -74 25 -91t104 9v-96q-60 -20 -92 -20t-60 6q-94 14 -98 157q-158 -176 -395 -176
q-150 0 -252 80t-103 225q0 271 371 320l170 22q107 10 157 32t50 114zM842 391v166q-104 -43 -318 -59q-299 -23 -299 -226q0 -92 68 -141t162 -49q159 0 273 78t114 231z" />
    <glyph glyph-name="aring" unicode="&#xe5;" 
d="M570 1251q54 0 96 41q41 41 41 95q0 53 -40 95q-39 42 -95 42t-97 -41t-41 -97t41 -95q41 -40 95 -40zM571 1184q-84 0 -144 60t-60 142t61 144t143 61q83 0 143 -61q60 -60 60 -144t-60 -143t-143 -59zM842 764q0 215 -264 215q-138 0 -216 -54t-94 -186h-125
q12 179 131 265q118 86 300 86q389 0 391 -330v-578q-1 -74 25 -91t104 9v-96q-60 -20 -92 -20t-60 6q-94 14 -98 157q-158 -176 -395 -176q-150 0 -252 80t-103 225q0 271 371 320l170 22q107 10 157 32t50 114zM842 391v166q-104 -43 -318 -59q-299 -23 -299 -226
q0 -92 68 -141t162 -49q159 0 273 78t114 231z" />
    <glyph glyph-name="ae" unicode="&#xe6;" horiz-adv-x="1820" 
d="M805 748q0 133 -57 182t-201 49q-266 0 -295 -234h-127q10 173 125 259t293 86q297 0 370 -175q66 99 154 137t217 38q255 0 358 -174q93 -158 93 -414h-799q0 -186 87 -303t265 -117q119 0 199 64t110 182h129q-41 -172 -155 -265q-115 -92 -293 -92q-268 0 -410 234
q-51 -70 -93 -112t-136 -82q-93 -40 -231 -40t-233 76t-95 220t93 231q94 86 276 106l116 12q154 16 197 41t43 91zM936 604h668q0 160 -85 268t-239 107q-92 0 -162 -37q-117 -62 -164 -215q-18 -62 -18 -123zM805 418v143q-79 -41 -372 -75q-87 -9 -155 -57t-67 -144
q0 -95 58 -149t163 -54q180 0 277 91q96 91 96 245z" />
    <glyph glyph-name="ccedilla" unicode="&#xe7;" 
d="M584 979q-176 0 -266 -133q-90 -132 -91 -318q0 -186 89 -316t268 -130q135 0 219 76t106 209h131q-33 -180 -145 -286q-113 -105 -301 -110l-74 -92q49 12 93 12q44 -1 88 -33t51 -73q18 -101 -50 -155t-164 -54t-198 39l31 61q92 -30 137 -30t87 24t42 68q0 43 -30 63
q-29 21 -65 21t-98 -17l-30 27l106 145q-211 18 -317 169q-107 151 -107 383q0 233 130 397t358 164q385 -1 440 -363h-125q-70 252 -315 252z" />
    <glyph glyph-name="egrave" unicode="&#xe8;" 
d="M604 1176l-282 284h159l228 -284h-105zM580 82q122 0 208 64t113 180h137q-109 -354 -458 -355q-244 0 -366 153q-122 154 -122 398t133 406t355 162t345 -152q124 -152 122 -436h-824q-2 -180 92 -300t265 -120zM915 604q0 162 -88 268q-89 106 -245 106t-248 -106
t-111 -268h692z" />
    <glyph glyph-name="eacute" unicode="&#xe9;" 
d="M557 1176h-104l227 284h158zM580 82q122 0 208 64t113 180h137q-109 -354 -458 -355q-244 0 -366 153q-122 154 -122 398t133 406t355 162t345 -152q124 -152 122 -436h-824q-2 -180 92 -300t265 -120zM915 604q0 162 -88 268q-89 106 -245 106t-248 -106t-111 -268h692z
" />
    <glyph glyph-name="ecircumflex" unicode="&#xea;" 
d="M580 1384l-168 -208h-133l233 284h137l232 -284h-133zM580 82q122 0 208 64t113 180h137q-109 -354 -458 -355q-244 0 -366 153q-122 154 -122 398t133 406t355 162t345 -152q124 -152 122 -436h-824q-2 -180 92 -300t265 -120zM915 604q0 162 -88 268q-89 106 -245 106
t-248 -106t-111 -268h692z" />
    <glyph glyph-name="edieresis" unicode="&#xeb;" 
d="M678 1196v209h133v-209h-133zM352 1196v209h133v-209h-133zM580 82q122 0 208 64t113 180h137q-109 -354 -458 -355q-244 0 -366 153q-122 154 -122 398t133 406t355 162t345 -152q124 -152 122 -436h-824q-2 -180 92 -300t265 -120zM915 604q0 162 -88 268
q-89 106 -245 106t-248 -106t-111 -268h692z" />
    <glyph glyph-name="igrave" unicode="&#xec;" horiz-adv-x="454" 
d="M262 1176l-282 284h159l228 -284h-105zM283 0h-123v1061h123v-1061z" />
    <glyph glyph-name="iacute" unicode="&#xed;" horiz-adv-x="454" 
d="M172 1176h-104l227 284h158zM283 0h-123v1061h123v-1061z" />
    <glyph glyph-name="icircumflex" unicode="&#xee;" horiz-adv-x="454" 
d="M195 1384l-168 -208h-133l233 284h137l232 -284h-134zM283 0h-123v1061h123v-1061z" />
    <glyph glyph-name="idieresis" unicode="&#xef;" horiz-adv-x="454" 
d="M293 1196v209h133v-209h-133zM-33 1196v209h133v-209h-133zM283 0h-123v1061h123v-1061z" />
    <glyph glyph-name="eth" unicode="&#xf0;" 
d="M1061 538q0 -260 -134 -414t-358 -153q-215 5 -353 149t-138 392t123 414q123 164 360 164q103 0 165 -18t134 -77q-71 203 -186 305l-125 -100l-78 49l133 107q-66 45 -164 90l84 67q92 -39 162 -92l113 92l75 -51l-120 -98q145 -137 226 -352q81 -214 81 -474zM572 979
q-182 0 -273 -129q-90 -129 -90 -326q0 -198 94 -320t270 -122t267 130q90 130 89 326t-88 318q-87 123 -269 123z" />
    <glyph glyph-name="ntilde" unicode="&#xf1;" 
d="M735 1307q70 0 90 102h78q-2 -18 -16 -78q-53 -123 -152 -123q-59 0 -156 46t-141 46t-66 -26t-36 -74h-74q6 63 41 121q31 45 80 65t91 12t132 -50q90 -41 129 -41zM866 692q0 287 -256 287q-126 0 -204 -59q-78 -58 -107 -140t-29 -209v-571h-123v1061h123v-148
q82 89 161 133t181 44q219 0 324 -152q53 -78 53 -244v-694h-123v692z" />
    <glyph glyph-name="ograve" unicode="&#xf2;" 
d="M604 1176l-282 284h159l228 -284h-105zM572 979q-182 0 -273 -129q-90 -129 -90 -326q0 -198 94 -320t270 -122t267 130q90 130 89 326t-88 318q-87 123 -269 123zM1061 527q-1 -249 -135 -403t-353 -151t-357 147t-138 399t128 413t366 158t363 -157q126 -157 126 -406z
" />
    <glyph glyph-name="oacute" unicode="&#xf3;" 
d="M557 1176h-104l227 284h158zM572 979q-182 0 -273 -129q-90 -129 -90 -326q0 -198 94 -320t270 -122t267 130q90 130 89 326t-88 318q-87 123 -269 123zM1061 527q-1 -249 -135 -403t-353 -151t-357 147t-138 399t128 413t366 158t363 -157q126 -157 126 -406z" />
    <glyph glyph-name="ocircumflex" unicode="&#xf4;" 
d="M580 1384l-168 -208h-133l233 284h137l232 -284h-133zM572 979q-182 0 -273 -129q-90 -129 -90 -326q0 -198 94 -320t270 -122t267 130q90 130 89 326t-88 318q-87 123 -269 123zM1061 527q-1 -249 -135 -403t-353 -151t-357 147t-138 399t128 413t366 158t363 -157
q126 -157 126 -406z" />
    <glyph glyph-name="otilde" unicode="&#xf5;" 
d="M735 1307q70 0 90 102h78q-2 -18 -16 -78q-53 -123 -152 -123q-59 0 -156 46t-141 46t-66 -26t-36 -74h-74q6 63 41 121q31 45 80 65t91 12t132 -50q90 -41 129 -41zM572 979q-182 0 -273 -129q-90 -129 -90 -326q0 -198 94 -320t270 -122t267 130q90 130 89 326t-88 318
q-87 123 -269 123zM1061 527q-1 -249 -135 -403t-353 -151t-357 147t-138 399t128 413t366 158t363 -157q126 -157 126 -406z" />
    <glyph glyph-name="odieresis" unicode="&#xf6;" 
d="M678 1196v209h133v-209h-133zM352 1196v209h133v-209h-133zM572 979q-182 0 -273 -129q-90 -129 -90 -326q0 -198 94 -320t270 -122t267 130q90 130 89 326t-88 318q-87 123 -269 123zM1061 527q-1 -249 -135 -403t-353 -151t-357 147t-138 399t128 413t366 158t363 -157
q126 -157 126 -406z" />
    <glyph glyph-name="divide" unicode="&#xf7;" horiz-adv-x="1351" 
d="M752 844h-150v180h150v-180zM752 0h-150v180h150v-180zM164 451v122h1024v-122h-1024z" />
    <glyph glyph-name="oslash" unicode="&#xf8;" 
d="M573 1090q190 0 316 -109l106 127l72 -64l-113 -133q111 -147 111 -391t-130 -396t-362 -153q-196 0 -317 113l-111 -131l-73 59l118 140q-108 144 -108 382t128 397t363 159zM573 82q180 0 271 129q90 129 90 315t-64 287l-538 -639q92 -92 241 -92zM561 979
q-168 0 -258 -130q-90 -131 -90 -313t63 -282l533 633q-80 92 -248 92z" />
    <glyph glyph-name="ugrave" unicode="&#xf9;" 
d="M604 1176l-282 284h159l228 -284h-105zM866 483v578h123v-1061h-123v147q-47 -53 -79 -81q-33 -28 -105 -62q-72 -33 -158 -33q-377 0 -377 391v699h123v-696q0 -283 273 -283q151 0 237 112t86 289z" />
    <glyph glyph-name="uacute" unicode="&#xfa;" 
d="M557 1176h-104l227 284h158zM866 483v578h123v-1061h-123v147q-47 -53 -79 -81q-33 -28 -105 -62q-72 -33 -158 -33q-377 0 -377 391v699h123v-696q0 -283 273 -283q151 0 237 112t86 289z" />
    <glyph glyph-name="ucircumflex" unicode="&#xfb;" 
d="M580 1384l-168 -208h-133l233 284h137l232 -284h-133zM866 483v578h123v-1061h-123v147q-47 -53 -79 -81q-33 -28 -105 -62q-72 -33 -158 -33q-377 0 -377 391v699h123v-696q0 -283 273 -283q151 0 237 112t86 289z" />
    <glyph glyph-name="udieresis" unicode="&#xfc;" 
d="M678 1196v209h133v-209h-133zM352 1196v209h133v-209h-133zM866 483v578h123v-1061h-123v147q-47 -53 -79 -81q-33 -28 -105 -62q-72 -33 -158 -33q-377 0 -377 391v699h123v-696q0 -283 273 -283q151 0 237 112t86 289z" />
    <glyph glyph-name="yacute" unicode="&#xfd;" horiz-adv-x="1024" 
d="M500 1176h-105l228 284h157zM255 -301q50 0 87 47t68 138t39 108l-412 1069h137l340 -911l340 911h133l-395 -1047q-111 -294 -178 -363t-142 -69q-76 0 -133 15v114q66 -12 116 -12z" />
    <glyph glyph-name="thorn" unicode="&#xfe;" horiz-adv-x="1251" 
d="M285 -418h-123v1893h123v-601h4q51 100 156 158t212 58q244 0 362 -153t118 -399t-122 -406t-351 -161q-114 1 -218 53t-161 146v-588zM285 532q0 -192 98 -321t270 -129t267 136q94 136 86 345q-2 195 -102 305t-265 111q-164 0 -259 -127q-95 -128 -95 -320z" />
    <glyph glyph-name="ydieresis" unicode="&#xff;" horiz-adv-x="1024" 
d="M621 1196v209h133v-209h-133zM295 1196v209h133v-209h-133zM255 -301q50 0 87 47t68 138t39 108l-412 1069h137l340 -911l340 911h133l-395 -1047q-111 -294 -178 -363t-142 -69q-76 0 -133 15v114q66 -12 116 -12z" />
    <glyph glyph-name="dotlessi" unicode="&#x131;" horiz-adv-x="454" 
d="M283 0h-123v1061h123v-1061z" />
    <glyph glyph-name="Lslash" unicode="&#x141;" 
d="M1096 0h-930v737l-166 -82v123l166 82v615h139v-512l166 81v-122l-166 -82v-721h791v-119z" />
    <glyph glyph-name="lslash" unicode="&#x142;" horiz-adv-x="454" 
d="M289 0h-123v696l-146 -82v123l146 82v656h123v-553l145 82v-123l-145 -82v-799z" />
    <glyph glyph-name="OE" unicode="&#x152;" horiz-adv-x="2048" 
d="M1126 0v147q-86 -88 -181 -137t-245 -49q-150 -1 -273 63q-343 176 -343 744q0 190 62 360t206 278t357 107q143 0 247 -43t170 -151v156h834v-119h-700v-533h655v-118h-655v-586h720v-119h-854zM1120 453v567q0 180 -108 277q-109 97 -303 98q-233 0 -359 -167
q-126 -168 -127 -480q0 -312 124 -490t378 -178q164 0 295 110q100 87 100 263z" />
    <glyph glyph-name="oe" unicode="&#x153;" horiz-adv-x="1933" 
d="M1720 604q0 170 -81 272t-239 103q-158 -1 -251 -109q-94 -108 -102 -266h673zM558 82q171 0 264 128t93 331t-96 321t-268 117q-172 0 -262 -126t-84 -343q-2 -184 90 -306t263 -122zM1851 502h-804q-9 -84 21 -176t118 -168t212 -76t207 68t107 178h125
q-37 -172 -151 -265q-114 -92 -272 -92t-267 71t-166 187q-61 -127 -176 -193t-258 -65q-213 0 -343 152q-130 153 -130 403t121 407t360 157q299 0 426 -256q133 256 409 256t375 -182q86 -159 86 -406z" />
    <glyph glyph-name="Scaron" unicode="&#x160;" horiz-adv-x="1251" 
d="M635 1665l168 209h133l-231 -285h-138l-233 285h133zM88 440h135q31 -360 424 -360q186 0 281 87q94 87 94 218q0 91 -49 153t-129 92t-175 52t-191 50q-96 26 -177 67q-80 41 -129 122t-49 197q0 164 132 280t369 116q236 0 366 -126q130 -124 128 -315h-133
q0 160 -104 241t-258 81q-197 1 -289 -99t-72 -227q22 -142 207 -202q80 -26 174 -45q232 -47 351 -112q75 -42 121 -122t46 -197q0 -203 -142 -317t-389 -113q-246 0 -394 124t-148 355z" />
    <glyph glyph-name="scaron" unicode="&#x161;" horiz-adv-x="1024" 
d="M522 1251l168 209h133l-231 -284h-137l-234 284h133zM531 82q133 0 201 57t67 141q0 84 -70 128q-70 45 -170 63q-101 18 -201 43q-100 26 -170 92t-70 190t100 210q99 84 274 84q367 0 409 -334h-125q-31 223 -287 223q-115 0 -177 -49t-62 -125t50 -119t126 -60
t164 -42t164 -53t126 -91t50 -159q0 -147 -119 -229t-307 -81t-295 103t-115 258h125q29 -134 104 -192t208 -58z" />
    <glyph glyph-name="Ydieresis" unicode="&#x178;" horiz-adv-x="1251" 
d="M733 1610v209h133v-209h-133zM408 1610v209h133v-209h-133zM690 0h-139v633l-526 842h159l434 -711l445 711h162l-535 -832v-643z" />
    <glyph glyph-name="Zcaron" unicode="&#x17d;" horiz-adv-x="1251" 
d="M635 1665l168 209h133l-231 -285h-138l-233 285h133zM1186 0h-1123v117l945 1239h-865v119h1037v-117l-944 -1239h950v-119z" />
    <glyph glyph-name="zcaron" unicode="&#x17e;" horiz-adv-x="1024" 
d="M522 1251l168 209h133l-231 -284h-137l-234 284h133zM956 0h-888v109l704 849h-657v103h815v-109l-705 -850h731v-102z" />
    <glyph glyph-name="florin" unicode="&#x192;" 
d="M928 918v-99h-252l-131 -688q-58 -310 -160 -422t-246 -110q-49 0 -112 22l39 117q45 -27 106 -27q111 0 173 176t138 600l60 332h-232v99h248q5 24 23 102q56 252 109 327q26 35 64 77q72 78 206 79q71 0 143 -41l-41 -100q-78 43 -158 24q-92 -16 -130 -125
q-32 -90 -52 -197q-20 -106 -31 -146h236z" />
    <glyph glyph-name="circumflex" unicode="&#x2c6;" horiz-adv-x="681" 
d="M350 1384l-168 -208h-133l234 284h137l231 -284h-133z" />
    <glyph glyph-name="caron" unicode="&#x2c7;" horiz-adv-x="681" 
d="M350 1251l168 209h133l-231 -284h-137l-234 284h133z" />
    <glyph glyph-name="uni02C9" unicode="&#x2c9;" horiz-adv-x="681" 
d="M47 1253v93h606v-93h-606z" />
    <glyph glyph-name="breve" unicode="&#x2d8;" horiz-adv-x="681" 
d="M350 1280q180 0 221 166h76q-14 -127 -95 -193q-81 -65 -207 -65t-203 68t-85 190h80q33 -166 213 -166z" />
    <glyph glyph-name="dotaccent" unicode="&#x2d9;" horiz-adv-x="681" 
d="M274 1196v209h134v-209h-134z" />
    <glyph glyph-name="ring" unicode="&#x2da;" horiz-adv-x="681" 
d="M341 1251q54 0 95 41t41 95q0 53 -40 95t-95 42t-96 -41t-41 -97t41 -95q41 -40 95 -40zM342 1184q-84 0 -144 60t-61 142t61 144t144 61q82 0 142 -61q60 -60 60 -144t-58 -143q-60 -59 -144 -59z" />
    <glyph glyph-name="ogonek" unicode="&#x2db;" horiz-adv-x="681" 
d="M408 0v-4q-164 -82 -164 -178q0 -57 40 -87t90 -30t93 18v-90q-51 -18 -122 -18t-132 47t-61 123q0 138 153 219h103z" />
    <glyph glyph-name="tilde" unicode="&#x2dc;" horiz-adv-x="681" 
d="M506 1307q70 0 90 102h78q-2 -18 -17 -78q-53 -123 -151 -123q-58 0 -156 46t-141 46t-66 -26t-37 -74h-73q6 63 41 121q31 45 80 65t91 12t132 -50q90 -41 129 -41z" />
    <glyph glyph-name="hungarumlaut" unicode="&#x2dd;" horiz-adv-x="681" 
d="M659 1176h-104l227 284h158zM328 1176h-105l228 284h157z" />
    <glyph glyph-name="uni03A9" unicode="&#x3a9;" horiz-adv-x="1484" 
d="M424 98v6q-125 109 -206 276t-81 374q0 305 175 496q176 192 438 192t430 -199t168 -481q0 -215 -85 -388t-206 -270v-6h319v-98h-477v72q139 90 235 266q95 176 95 396t-121 409q-58 88 -152 143t-208 55q-220 0 -356 -173q-136 -174 -136 -410t97 -419t233 -267v-72
h-477v98h315z" />
    <glyph glyph-name="uni03BC" unicode="&#x3bc;" 
d="M866 483v578h123v-1061h-123v147q-47 -53 -79 -81q-33 -28 -105 -62q-72 -33 -158 -33q-147 0 -254 66v-455h-123v1479h123v-696q0 -283 273 -283q151 0 237 112t86 289z" />
    <glyph glyph-name="pi" unicode="&#x3c0;" horiz-adv-x="1148" 
d="M920 950v-651q0 -203 30 -299h-114q-35 57 -35 285v665h-402q-10 -225 -56 -522t-99 -428h-117q57 152 101 436t55 514q-170 0 -240 -26l-20 77q92 51 280 52h801l-12 -103h-172z" />
    <glyph glyph-name="endash" unicode="&#x2013;" horiz-adv-x="1024" 
d="M1024 578v-91h-1024v91h1024z" />
    <glyph glyph-name="emdash" unicode="&#x2014;" horiz-adv-x="2048" 
d="M2048 487h-2048v91h2048v-91z" />
    <glyph glyph-name="quoteleft" unicode="&#x2018;" horiz-adv-x="454" 
d="M141 1014v241q0 172 150 220v-76q-70 -43 -70 -135v-70h70v-180h-150z" />
    <glyph glyph-name="quoteright" unicode="&#x2019;" horiz-adv-x="454" 
d="M313 1475v-242q0 -172 -149 -219v76q70 43 69 135v69h-69v181h149z" />
    <glyph glyph-name="quotesinglbase" unicode="&#x201a;" horiz-adv-x="454" 
d="M313 180v-241q0 -172 -149 -220v76q70 43 69 135v70h-69v180h149z" />
    <glyph glyph-name="quotedblleft" unicode="&#x201c;" horiz-adv-x="796" 
d="M176 1014v241q0 172 150 220v-76q-70 -43 -70 -135v-70h70v-180h-150zM485 1014v241q0 172 150 220v-76q-70 -43 -70 -135v-70h70v-180h-150z" />
    <glyph glyph-name="quotedblright" unicode="&#x201d;" horiz-adv-x="796" 
d="M311 1475v-242q0 -172 -149 -219v76q70 43 69 135v69h-69v181h149zM621 1475v-242q0 -172 -150 -219v76q70 43 70 135v69h-70v181h150z" />
    <glyph glyph-name="quotedblbase" unicode="&#x201e;" horiz-adv-x="796" 
d="M311 180v-241q0 -172 -149 -220v76q70 43 69 135v70h-69v180h149zM621 180v-241q0 -172 -150 -220v76q70 43 70 135v70h-70v180h150z" />
    <glyph glyph-name="dagger" unicode="&#x2020;" 
d="M508 -340v1233h-432v111h432v471h123v-471h432v-111h-432v-1233h-123z" />
    <glyph glyph-name="daggerdbl" unicode="&#x2021;" 
d="M508 223v684h-432v111h432v457h123v-457h432v-111h-432v-684h432v-110h-432v-453h-123v453h-432v110h432z" />
    <glyph glyph-name="bullet" unicode="&#x2022;" horiz-adv-x="1024" 
d="M881 736q0 -152 -109 -260q-108 -108 -260 -108t-260 110q-108 108 -109 260q0 152 108 260q109 108 261 108t260 -108t109 -262z" />
    <glyph glyph-name="ellipsis" unicode="&#x2026;" horiz-adv-x="2048" 
d="M1782 0h-150v180h150v-180zM1100 0h-150v180h150v-180zM418 0h-150v180h150v-180z" />
    <glyph glyph-name="perthousand" unicode="&#x2030;" horiz-adv-x="2048" 
d="M285 -29h-109l834 1473h108zM969 117q74 0 132 57t58 132t-57 132q-57 58 -133 58t-132 -58q-57 -58 -57 -133q0 -76 58 -132t131 -56zM969 612q125 0 216 -91t91 -217t-90 -215t-216 -89t-216 90t-90 215t90 216t215 91zM334 1313q-76 -1 -132 -57t-56 -132t56 -133
t132 -57t133 57t58 132t-57 133t-134 57zM334 1430q125 0 216 -90t91 -217q0 -126 -90 -216t-216 -90t-216 91t-90 216q0 126 90 216t215 90zM1711 117q75 0 132 57t57 132t-56 132q-56 58 -133 58t-133 -58t-56 -133q0 -76 57 -132t132 -56zM1712 612q125 0 215 -91
t90 -216t-89 -215t-216 -90t-217 90t-90 215t91 216t216 91z" />
    <glyph glyph-name="guilsinglleft" unicode="&#x2039;" horiz-adv-x="796" 
d="M248 467v129l299 231v-129l-213 -168l213 -163v-127z" />
    <glyph glyph-name="guilsinglright" unicode="&#x203a;" horiz-adv-x="796" 
d="M549 600v-129l-299 -231v129l213 168l-213 163v127z" />
    <glyph glyph-name="fraction" unicode="&#x2044;" horiz-adv-x="342" 
d="M-231 -29h-105l909 1473h105z" />
    <glyph glyph-name="Euro" unicode="&#x20ac;" 
d="M698 82q205 0 342 223v-172q-57 -74 -147 -118t-195 -44q-182 0 -312 121t-171 391h-176l41 111h125q-4 74 -4 123t2 78h-160l39 110h131q35 285 167 412t318 127q293 0 398 -238l-58 -155q-35 145 -126 214t-214 68q-154 -1 -240 -115t-114 -313h637l-41 -110h-606
l-2 -86q0 -41 4 -115h530l-41 -111h-477q63 -401 350 -401z" />
    <glyph glyph-name="afii61289" unicode="&#x2113;" horiz-adv-x="972" 
d="M336 1096v-494q162 174 252 328t90 305q0 236 -158 235q-72 0 -128 -92t-56 -282zM225 1083q0 256 87 367t208 111q121 -1 183 -91t63 -229q0 -340 -430 -760v-61q2 -176 70 -260t164 -84t172 60q75 60 118 143l62 -50q-131 -248 -367 -247q-164 0 -245 110t-85 279v26
q-33 -25 -121 -100l-41 74q143 123 162 141v571z" />
    <glyph glyph-name="trademark" unicode="&#x2122;" horiz-adv-x="1925" 
d="M715 1475v-82h-275v-781h-106v781h-275v82h656zM1759 1475v-863h-106v772h-4l-297 -772h-70l-297 772h-4v-772h-107v863h197l246 -637h4l242 637h196z" />
    <glyph glyph-name="Omega" unicode="&#x2126;" horiz-adv-x="1484" 
d="M424 98v6q-125 109 -206 276t-81 374q0 305 175 496q176 192 438 192t430 -199t168 -481q0 -215 -85 -388t-206 -270v-6h319v-98h-477v72q139 90 235 266q95 176 95 396t-121 409q-58 88 -152 143t-208 55q-220 0 -356 -173q-136 -174 -136 -410t97 -419t233 -267v-72
h-477v98h315z" />
    <glyph glyph-name="estimated" unicode="&#x212e;" horiz-adv-x="1775" 
d="M1405 739v404q0 27 -21 47q-212 209 -498 209t-497 -215q-20 -20 -20 -51v-394q0 -12 12 -12h1014q10 0 10 12zM1704 686h-1323q-12 0 -12 -8v-402q0 -18 18 -45q211 -217 513 -217t515 244h117q-111 -131 -282 -208t-365 -77q-338 0 -577 215q-238 216 -238 520t238 520
q239 216 578 216q338 0 578 -216t240 -521v-21z" />
    <glyph glyph-name="partialdiff" unicode="&#x2202;" horiz-adv-x="1099" 
d="M481 78h4q150 0 250 156t125 389q-31 87 -119 163q-89 76 -213 76t-222 -122t-99 -288t75 -270t199 -104zM993 820q0 -368 -135 -604t-385 -236q-184 0 -284 137q-99 137 -99 347t128 352t304 142q129 0 223 -68t129 -138h3q2 27 2 96q0 285 -117 461q-116 176 -274 176
t-281 -96l-45 84q141 111 339 111t345 -199q147 -197 147 -565z" />
    <glyph glyph-name="Delta" unicode="&#x2206;" horiz-adv-x="1323" 
d="M184 96h944l-323 840q-14 43 -72 186q-57 143 -71 197h-9q-12 -43 -62 -176t-65 -174zM68 0v88l528 1370h133l526 -1368v-90h-1187z" />
    <glyph glyph-name="product" unicode="&#x220f;" horiz-adv-x="1417" 
d="M1362 1311h-232v-1508h-114v1508h-617v-1508h-114v1508h-232v106h1309v-106z" />
    <glyph glyph-name="summation" unicode="&#x2211;" horiz-adv-x="1130" 
d="M1081 -197h-1034v80l569 725l-544 727v82h979v-102h-811v-6l512 -686l-551 -701v-6h880v-113z" />
    <glyph glyph-name="minus" unicode="&#x2212;" horiz-adv-x="1351" 
d="M164 451v122h1024v-122h-1024z" />
    <glyph glyph-name="uni2215" unicode="&#x2215;" horiz-adv-x="342" 
d="M-231 -29h-105l909 1473h105z" />
    <glyph glyph-name="uni2219" unicode="&#x2219;" horiz-adv-x="569" 
d="M285 815q39 0 69 -29q30 -30 29 -70q0 -40 -29 -70q-30 -30 -70 -30t-70 30t-30 70t31 70t70 29z" />
    <glyph glyph-name="radical" unicode="&#x221a;" horiz-adv-x="1155" 
d="M1151 1679l-455 -1988h-110l-334 958l-154 -55l-26 74l254 100l278 -795q29 -109 35 -139h2q6 44 25 135l393 1710h92z" />
    <glyph glyph-name="infinity" unicode="&#x221e;" horiz-adv-x="1585" 
d="M1180 819h-2q-48 1 -104 -29t-85 -55t-84 -84t-59 -63q122 -129 190 -181q68 -53 154 -53t144 70t58 170t-58 163q-60 62 -154 62zM418 354h2q82 0 153 57q70 57 118 107q48 51 59 62q-117 135 -172 178q-86 61 -178 61q-92 -1 -150 -71q-57 -70 -56 -166q2 -96 64 -162
t160 -66zM1479 592v-2q0 -140 -90 -228q-91 -88 -199 -88t-192 58t-203 190q-72 -80 -115 -123t-120 -84t-154 -41q-123 0 -211 90q-89 90 -89 221q0 132 90 222t224 90q72 0 146 -40t120 -86q47 -46 117 -124q63 69 88 95q108 110 172 133q65 22 125 22q133 0 212 -85
t79 -220z" />
    <glyph glyph-name="integral" unicode="&#x222b;" horiz-adv-x="704" 
d="M395 1219q-1 -155 13 -515t14 -522q0 -281 -92 -409q-63 -92 -183 -92q-70 0 -124 34l24 86q122 -62 194 28q73 89 72 357l-26 1045q0 315 104 420q70 76 176 75q64 1 107 -30l-25 -82q-31 22 -87 22t-93 -47q-74 -82 -74 -370z" />
    <glyph glyph-name="approxequal" unicode="&#x2248;" horiz-adv-x="1163" 
d="M803 293q-80 0 -153 39q-28 14 -125 66t-163 53q-113 0 -208 -156l-56 43q100 190 277 190q99 0 233 -84q110 -61 146 -66t55 -5q61 -1 107 35t92 116l53 -45q-98 -186 -258 -186zM803 629q-80 0 -153 39q-28 14 -125 66q-180 97 -276 12q-46 -40 -95 -113l-56 43
q102 190 277 190q101 0 233 -88q120 -60 149 -64q29 -5 52 -5q63 0 109 36q45 37 90 117l53 -45q-98 -188 -258 -188z" />
    <glyph glyph-name="notequal" unicode="&#x2260;" horiz-adv-x="1163" 
d="M1055 813v-82h-371l-143 -307h514v-82h-549l-115 -246l-65 33l98 213h-318v82h355l143 307h-498v82h531l113 240l65 -33l-96 -207h336z" />
    <glyph glyph-name="lessequal" unicode="&#x2264;" horiz-adv-x="1163" 
d="M1055 20h-949v86h949v-86zM1049 193l-930 460v84l930 463v-100l-838 -400v-4l838 -405v-98z" />
    <glyph glyph-name="greaterequal" unicode="&#x2265;" horiz-adv-x="1163" 
d="M1053 20h-944v86h944v-86zM119 1200l932 -463v-84l-932 -460v98l837 401v6l-837 402v100z" />
    <glyph glyph-name="lozenge" unicode="&#x25ca;" horiz-adv-x="1157" 
d="M930 705l-314 600q-25 57 -38 102h-5q-10 -37 -38 -102l-312 -594l316 -602q27 -59 36 -101h7q14 55 36 98zM1040 709l-415 -799h-97l-413 799l415 800h97z" />
    </font>
</defs>
</svg>
